<?xml version="1.0" encoding="utf-8" standalone="no"?>
<!DOCTYPE svg PUBLIC "-//W3C//DTD SVG 1.1//EN"
  "http://www.w3.org/Graphics/SVG/1.1/DTD/svg11.dtd">
<svg height="345.6pt" version="1.1" viewBox="0 0 460.8 345.6" width="460.8pt" xmlns="http://www.w3.org/2000/svg" xmlns:xlink="http://www.w3.org/1999/xlink">
 <metadata>
  <rdf:RDF xmlns:cc="http://creativecommons.org/ns#" xmlns:dc="http://purl.org/dc/elements/1.1/" xmlns:rdf="http://www.w3.org/1999/02/22-rdf-syntax-ns#">
   <cc:Work>
    <dc:type rdf:resource="http://purl.org/dc/dcmitype/StillImage"/>
    <dc:date>2021-07-08T14:37:20.927026</dc:date>
    <dc:format>image/svg+xml</dc:format>
    <dc:creator>
     <cc:Agent>
      <dc:title>Matplotlib v3.4.2, https://matplotlib.org/</dc:title>
     </cc:Agent>
    </dc:creator>
   </cc:Work>
  </rdf:RDF>
 </metadata>
 <defs>
  <style type="text/css">*{stroke-linecap:butt;stroke-linejoin:round;}</style>
 </defs>
 <g id="figure_1">
  <g id="patch_1">
   <path d="M 0 345.6 
L 460.8 345.6 
L 460.8 0 
L 0 0 
z
" style="fill:#ffffff;"/>
  </g>
  <g id="axes_1">
   <g id="patch_2">
    <path d="M 57.6 307.584 
L 414.72 307.584 
L 414.72 41.472 
L 57.6 41.472 
z
" style="fill:#ffffff;"/>
   </g>
   <g id="matplotlib.axis_1">
    <g id="xtick_1">
     <g id="line2d_1">
      <path clip-path="url(#p2824f20b17)" d="M 73.832727 307.584 
L 73.832727 41.472 
" style="fill:none;stroke:#b0b0b0;stroke-linecap:square;stroke-width:0.8;"/>
     </g>
     <g id="line2d_2">
      <defs>
       <path d="M 0 0 
L 0 3.5 
" id="m025b36f9fd" style="stroke:#000000;stroke-width:0.8;"/>
      </defs>
      <g>
       <use style="stroke:#000000;stroke-width:0.8;" x="73.832727" xlink:href="#m025b36f9fd" y="307.584"/>
      </g>
     </g>
     <g id="text_1">
      <!-- 0 -->
      <g transform="translate(70.651477 322.182437)scale(0.1 -0.1)">
       <defs>
        <path d="M 2034 4250 
Q 1547 4250 1301 3770 
Q 1056 3291 1056 2328 
Q 1056 1369 1301 889 
Q 1547 409 2034 409 
Q 2525 409 2770 889 
Q 3016 1369 3016 2328 
Q 3016 3291 2770 3770 
Q 2525 4250 2034 4250 
z
M 2034 4750 
Q 2819 4750 3233 4129 
Q 3647 3509 3647 2328 
Q 3647 1150 3233 529 
Q 2819 -91 2034 -91 
Q 1250 -91 836 529 
Q 422 1150 422 2328 
Q 422 3509 836 4129 
Q 1250 4750 2034 4750 
z
" id="DejaVuSans-30" transform="scale(0.015625)"/>
       </defs>
       <use xlink:href="#DejaVuSans-30"/>
      </g>
     </g>
    </g>
    <g id="xtick_2">
     <g id="line2d_3">
      <path clip-path="url(#p2824f20b17)" d="M 135.088302 307.584 
L 135.088302 41.472 
" style="fill:none;stroke:#b0b0b0;stroke-linecap:square;stroke-width:0.8;"/>
     </g>
     <g id="line2d_4">
      <g>
       <use style="stroke:#000000;stroke-width:0.8;" x="135.088302" xlink:href="#m025b36f9fd" y="307.584"/>
      </g>
     </g>
     <g id="text_2">
      <!-- 50 -->
      <g transform="translate(128.725802 322.182437)scale(0.1 -0.1)">
       <defs>
        <path d="M 691 4666 
L 3169 4666 
L 3169 4134 
L 1269 4134 
L 1269 2991 
Q 1406 3038 1543 3061 
Q 1681 3084 1819 3084 
Q 2600 3084 3056 2656 
Q 3513 2228 3513 1497 
Q 3513 744 3044 326 
Q 2575 -91 1722 -91 
Q 1428 -91 1123 -41 
Q 819 9 494 109 
L 494 744 
Q 775 591 1075 516 
Q 1375 441 1709 441 
Q 2250 441 2565 725 
Q 2881 1009 2881 1497 
Q 2881 1984 2565 2268 
Q 2250 2553 1709 2553 
Q 1456 2553 1204 2497 
Q 953 2441 691 2322 
L 691 4666 
z
" id="DejaVuSans-35" transform="scale(0.015625)"/>
       </defs>
       <use xlink:href="#DejaVuSans-35"/>
       <use x="63.623047" xlink:href="#DejaVuSans-30"/>
      </g>
     </g>
    </g>
    <g id="xtick_3">
     <g id="line2d_5">
      <path clip-path="url(#p2824f20b17)" d="M 196.343877 307.584 
L 196.343877 41.472 
" style="fill:none;stroke:#b0b0b0;stroke-linecap:square;stroke-width:0.8;"/>
     </g>
     <g id="line2d_6">
      <g>
       <use style="stroke:#000000;stroke-width:0.8;" x="196.343877" xlink:href="#m025b36f9fd" y="307.584"/>
      </g>
     </g>
     <g id="text_3">
      <!-- 100 -->
      <g transform="translate(186.800127 322.182437)scale(0.1 -0.1)">
       <defs>
        <path d="M 794 531 
L 1825 531 
L 1825 4091 
L 703 3866 
L 703 4441 
L 1819 4666 
L 2450 4666 
L 2450 531 
L 3481 531 
L 3481 0 
L 794 0 
L 794 531 
z
" id="DejaVuSans-31" transform="scale(0.015625)"/>
       </defs>
       <use xlink:href="#DejaVuSans-31"/>
       <use x="63.623047" xlink:href="#DejaVuSans-30"/>
       <use x="127.246094" xlink:href="#DejaVuSans-30"/>
      </g>
     </g>
    </g>
    <g id="xtick_4">
     <g id="line2d_7">
      <path clip-path="url(#p2824f20b17)" d="M 257.599451 307.584 
L 257.599451 41.472 
" style="fill:none;stroke:#b0b0b0;stroke-linecap:square;stroke-width:0.8;"/>
     </g>
     <g id="line2d_8">
      <g>
       <use style="stroke:#000000;stroke-width:0.8;" x="257.599451" xlink:href="#m025b36f9fd" y="307.584"/>
      </g>
     </g>
     <g id="text_4">
      <!-- 150 -->
      <g transform="translate(248.055701 322.182437)scale(0.1 -0.1)">
       <use xlink:href="#DejaVuSans-31"/>
       <use x="63.623047" xlink:href="#DejaVuSans-35"/>
       <use x="127.246094" xlink:href="#DejaVuSans-30"/>
      </g>
     </g>
    </g>
    <g id="xtick_5">
     <g id="line2d_9">
      <path clip-path="url(#p2824f20b17)" d="M 318.855026 307.584 
L 318.855026 41.472 
" style="fill:none;stroke:#b0b0b0;stroke-linecap:square;stroke-width:0.8;"/>
     </g>
     <g id="line2d_10">
      <g>
       <use style="stroke:#000000;stroke-width:0.8;" x="318.855026" xlink:href="#m025b36f9fd" y="307.584"/>
      </g>
     </g>
     <g id="text_5">
      <!-- 200 -->
      <g transform="translate(309.311276 322.182437)scale(0.1 -0.1)">
       <defs>
        <path d="M 1228 531 
L 3431 531 
L 3431 0 
L 469 0 
L 469 531 
Q 828 903 1448 1529 
Q 2069 2156 2228 2338 
Q 2531 2678 2651 2914 
Q 2772 3150 2772 3378 
Q 2772 3750 2511 3984 
Q 2250 4219 1831 4219 
Q 1534 4219 1204 4116 
Q 875 4013 500 3803 
L 500 4441 
Q 881 4594 1212 4672 
Q 1544 4750 1819 4750 
Q 2544 4750 2975 4387 
Q 3406 4025 3406 3419 
Q 3406 3131 3298 2873 
Q 3191 2616 2906 2266 
Q 2828 2175 2409 1742 
Q 1991 1309 1228 531 
z
" id="DejaVuSans-32" transform="scale(0.015625)"/>
       </defs>
       <use xlink:href="#DejaVuSans-32"/>
       <use x="63.623047" xlink:href="#DejaVuSans-30"/>
       <use x="127.246094" xlink:href="#DejaVuSans-30"/>
      </g>
     </g>
    </g>
    <g id="xtick_6">
     <g id="line2d_11">
      <path clip-path="url(#p2824f20b17)" d="M 380.1106 307.584 
L 380.1106 41.472 
" style="fill:none;stroke:#b0b0b0;stroke-linecap:square;stroke-width:0.8;"/>
     </g>
     <g id="line2d_12">
      <g>
       <use style="stroke:#000000;stroke-width:0.8;" x="380.1106" xlink:href="#m025b36f9fd" y="307.584"/>
      </g>
     </g>
     <g id="text_6">
      <!-- 250 -->
      <g transform="translate(370.56685 322.182437)scale(0.1 -0.1)">
       <use xlink:href="#DejaVuSans-32"/>
       <use x="63.623047" xlink:href="#DejaVuSans-35"/>
       <use x="127.246094" xlink:href="#DejaVuSans-30"/>
      </g>
     </g>
    </g>
    <g id="text_7">
     <!-- Generations -->
     <g transform="translate(205.662344 335.860562)scale(0.1 -0.1)">
      <defs>
       <path d="M 3809 666 
L 3809 1919 
L 2778 1919 
L 2778 2438 
L 4434 2438 
L 4434 434 
Q 4069 175 3628 42 
Q 3188 -91 2688 -91 
Q 1594 -91 976 548 
Q 359 1188 359 2328 
Q 359 3472 976 4111 
Q 1594 4750 2688 4750 
Q 3144 4750 3555 4637 
Q 3966 4525 4313 4306 
L 4313 3634 
Q 3963 3931 3569 4081 
Q 3175 4231 2741 4231 
Q 1884 4231 1454 3753 
Q 1025 3275 1025 2328 
Q 1025 1384 1454 906 
Q 1884 428 2741 428 
Q 3075 428 3337 486 
Q 3600 544 3809 666 
z
" id="DejaVuSans-47" transform="scale(0.015625)"/>
       <path d="M 3597 1894 
L 3597 1613 
L 953 1613 
Q 991 1019 1311 708 
Q 1631 397 2203 397 
Q 2534 397 2845 478 
Q 3156 559 3463 722 
L 3463 178 
Q 3153 47 2828 -22 
Q 2503 -91 2169 -91 
Q 1331 -91 842 396 
Q 353 884 353 1716 
Q 353 2575 817 3079 
Q 1281 3584 2069 3584 
Q 2775 3584 3186 3129 
Q 3597 2675 3597 1894 
z
M 3022 2063 
Q 3016 2534 2758 2815 
Q 2500 3097 2075 3097 
Q 1594 3097 1305 2825 
Q 1016 2553 972 2059 
L 3022 2063 
z
" id="DejaVuSans-65" transform="scale(0.015625)"/>
       <path d="M 3513 2113 
L 3513 0 
L 2938 0 
L 2938 2094 
Q 2938 2591 2744 2837 
Q 2550 3084 2163 3084 
Q 1697 3084 1428 2787 
Q 1159 2491 1159 1978 
L 1159 0 
L 581 0 
L 581 3500 
L 1159 3500 
L 1159 2956 
Q 1366 3272 1645 3428 
Q 1925 3584 2291 3584 
Q 2894 3584 3203 3211 
Q 3513 2838 3513 2113 
z
" id="DejaVuSans-6e" transform="scale(0.015625)"/>
       <path d="M 2631 2963 
Q 2534 3019 2420 3045 
Q 2306 3072 2169 3072 
Q 1681 3072 1420 2755 
Q 1159 2438 1159 1844 
L 1159 0 
L 581 0 
L 581 3500 
L 1159 3500 
L 1159 2956 
Q 1341 3275 1631 3429 
Q 1922 3584 2338 3584 
Q 2397 3584 2469 3576 
Q 2541 3569 2628 3553 
L 2631 2963 
z
" id="DejaVuSans-72" transform="scale(0.015625)"/>
       <path d="M 2194 1759 
Q 1497 1759 1228 1600 
Q 959 1441 959 1056 
Q 959 750 1161 570 
Q 1363 391 1709 391 
Q 2188 391 2477 730 
Q 2766 1069 2766 1631 
L 2766 1759 
L 2194 1759 
z
M 3341 1997 
L 3341 0 
L 2766 0 
L 2766 531 
Q 2569 213 2275 61 
Q 1981 -91 1556 -91 
Q 1019 -91 701 211 
Q 384 513 384 1019 
Q 384 1609 779 1909 
Q 1175 2209 1959 2209 
L 2766 2209 
L 2766 2266 
Q 2766 2663 2505 2880 
Q 2244 3097 1772 3097 
Q 1472 3097 1187 3025 
Q 903 2953 641 2809 
L 641 3341 
Q 956 3463 1253 3523 
Q 1550 3584 1831 3584 
Q 2591 3584 2966 3190 
Q 3341 2797 3341 1997 
z
" id="DejaVuSans-61" transform="scale(0.015625)"/>
       <path d="M 1172 4494 
L 1172 3500 
L 2356 3500 
L 2356 3053 
L 1172 3053 
L 1172 1153 
Q 1172 725 1289 603 
Q 1406 481 1766 481 
L 2356 481 
L 2356 0 
L 1766 0 
Q 1100 0 847 248 
Q 594 497 594 1153 
L 594 3053 
L 172 3053 
L 172 3500 
L 594 3500 
L 594 4494 
L 1172 4494 
z
" id="DejaVuSans-74" transform="scale(0.015625)"/>
       <path d="M 603 3500 
L 1178 3500 
L 1178 0 
L 603 0 
L 603 3500 
z
M 603 4863 
L 1178 4863 
L 1178 4134 
L 603 4134 
L 603 4863 
z
" id="DejaVuSans-69" transform="scale(0.015625)"/>
       <path d="M 1959 3097 
Q 1497 3097 1228 2736 
Q 959 2375 959 1747 
Q 959 1119 1226 758 
Q 1494 397 1959 397 
Q 2419 397 2687 759 
Q 2956 1122 2956 1747 
Q 2956 2369 2687 2733 
Q 2419 3097 1959 3097 
z
M 1959 3584 
Q 2709 3584 3137 3096 
Q 3566 2609 3566 1747 
Q 3566 888 3137 398 
Q 2709 -91 1959 -91 
Q 1206 -91 779 398 
Q 353 888 353 1747 
Q 353 2609 779 3096 
Q 1206 3584 1959 3584 
z
" id="DejaVuSans-6f" transform="scale(0.015625)"/>
       <path d="M 2834 3397 
L 2834 2853 
Q 2591 2978 2328 3040 
Q 2066 3103 1784 3103 
Q 1356 3103 1142 2972 
Q 928 2841 928 2578 
Q 928 2378 1081 2264 
Q 1234 2150 1697 2047 
L 1894 2003 
Q 2506 1872 2764 1633 
Q 3022 1394 3022 966 
Q 3022 478 2636 193 
Q 2250 -91 1575 -91 
Q 1294 -91 989 -36 
Q 684 19 347 128 
L 347 722 
Q 666 556 975 473 
Q 1284 391 1588 391 
Q 1994 391 2212 530 
Q 2431 669 2431 922 
Q 2431 1156 2273 1281 
Q 2116 1406 1581 1522 
L 1381 1569 
Q 847 1681 609 1914 
Q 372 2147 372 2553 
Q 372 3047 722 3315 
Q 1072 3584 1716 3584 
Q 2034 3584 2315 3537 
Q 2597 3491 2834 3397 
z
" id="DejaVuSans-73" transform="scale(0.015625)"/>
      </defs>
      <use xlink:href="#DejaVuSans-47"/>
      <use x="77.490234" xlink:href="#DejaVuSans-65"/>
      <use x="139.013672" xlink:href="#DejaVuSans-6e"/>
      <use x="202.392578" xlink:href="#DejaVuSans-65"/>
      <use x="263.916016" xlink:href="#DejaVuSans-72"/>
      <use x="305.029297" xlink:href="#DejaVuSans-61"/>
      <use x="366.308594" xlink:href="#DejaVuSans-74"/>
      <use x="405.517578" xlink:href="#DejaVuSans-69"/>
      <use x="433.300781" xlink:href="#DejaVuSans-6f"/>
      <use x="494.482422" xlink:href="#DejaVuSans-6e"/>
      <use x="557.861328" xlink:href="#DejaVuSans-73"/>
     </g>
    </g>
   </g>
   <g id="matplotlib.axis_2">
    <g id="ytick_1">
     <g id="line2d_13">
      <path clip-path="url(#p2824f20b17)" d="M 57.6 267.613484 
L 414.72 267.613484 
" style="fill:none;stroke:#b0b0b0;stroke-linecap:square;stroke-width:0.8;"/>
     </g>
     <g id="line2d_14">
      <defs>
       <path d="M 0 0 
L -3.5 0 
" id="mfd33db4867" style="stroke:#000000;stroke-width:0.8;"/>
      </defs>
      <g>
       <use style="stroke:#000000;stroke-width:0.8;" x="57.6" xlink:href="#mfd33db4867" y="267.613484"/>
      </g>
     </g>
     <g id="text_8">
      <!-- −500 -->
      <g transform="translate(23.132812 271.412702)scale(0.1 -0.1)">
       <defs>
        <path d="M 678 2272 
L 4684 2272 
L 4684 1741 
L 678 1741 
L 678 2272 
z
" id="DejaVuSans-2212" transform="scale(0.015625)"/>
       </defs>
       <use xlink:href="#DejaVuSans-2212"/>
       <use x="83.789062" xlink:href="#DejaVuSans-35"/>
       <use x="147.412109" xlink:href="#DejaVuSans-30"/>
       <use x="211.035156" xlink:href="#DejaVuSans-30"/>
      </g>
     </g>
    </g>
    <g id="ytick_2">
     <g id="line2d_15">
      <path clip-path="url(#p2824f20b17)" d="M 57.6 222.452931 
L 414.72 222.452931 
" style="fill:none;stroke:#b0b0b0;stroke-linecap:square;stroke-width:0.8;"/>
     </g>
     <g id="line2d_16">
      <g>
       <use style="stroke:#000000;stroke-width:0.8;" x="57.6" xlink:href="#mfd33db4867" y="222.452931"/>
      </g>
     </g>
     <g id="text_9">
      <!-- 0 -->
      <g transform="translate(44.2375 226.25215)scale(0.1 -0.1)">
       <use xlink:href="#DejaVuSans-30"/>
      </g>
     </g>
    </g>
    <g id="ytick_3">
     <g id="line2d_17">
      <path clip-path="url(#p2824f20b17)" d="M 57.6 177.292379 
L 414.72 177.292379 
" style="fill:none;stroke:#b0b0b0;stroke-linecap:square;stroke-width:0.8;"/>
     </g>
     <g id="line2d_18">
      <g>
       <use style="stroke:#000000;stroke-width:0.8;" x="57.6" xlink:href="#mfd33db4867" y="177.292379"/>
      </g>
     </g>
     <g id="text_10">
      <!-- 500 -->
      <g transform="translate(31.5125 181.091597)scale(0.1 -0.1)">
       <use xlink:href="#DejaVuSans-35"/>
       <use x="63.623047" xlink:href="#DejaVuSans-30"/>
       <use x="127.246094" xlink:href="#DejaVuSans-30"/>
      </g>
     </g>
    </g>
    <g id="ytick_4">
     <g id="line2d_19">
      <path clip-path="url(#p2824f20b17)" d="M 57.6 132.131826 
L 414.72 132.131826 
" style="fill:none;stroke:#b0b0b0;stroke-linecap:square;stroke-width:0.8;"/>
     </g>
     <g id="line2d_20">
      <g>
       <use style="stroke:#000000;stroke-width:0.8;" x="57.6" xlink:href="#mfd33db4867" y="132.131826"/>
      </g>
     </g>
     <g id="text_11">
      <!-- 1000 -->
      <g transform="translate(25.15 135.931045)scale(0.1 -0.1)">
       <use xlink:href="#DejaVuSans-31"/>
       <use x="63.623047" xlink:href="#DejaVuSans-30"/>
       <use x="127.246094" xlink:href="#DejaVuSans-30"/>
       <use x="190.869141" xlink:href="#DejaVuSans-30"/>
      </g>
     </g>
    </g>
    <g id="ytick_5">
     <g id="line2d_21">
      <path clip-path="url(#p2824f20b17)" d="M 57.6 86.971274 
L 414.72 86.971274 
" style="fill:none;stroke:#b0b0b0;stroke-linecap:square;stroke-width:0.8;"/>
     </g>
     <g id="line2d_22">
      <g>
       <use style="stroke:#000000;stroke-width:0.8;" x="57.6" xlink:href="#mfd33db4867" y="86.971274"/>
      </g>
     </g>
     <g id="text_12">
      <!-- 1500 -->
      <g transform="translate(25.15 90.770492)scale(0.1 -0.1)">
       <use xlink:href="#DejaVuSans-31"/>
       <use x="63.623047" xlink:href="#DejaVuSans-35"/>
       <use x="127.246094" xlink:href="#DejaVuSans-30"/>
       <use x="190.869141" xlink:href="#DejaVuSans-30"/>
      </g>
     </g>
    </g>
    <g id="ytick_6">
     <g id="line2d_23">
      <path clip-path="url(#p2824f20b17)" d="M 57.6 41.810721 
L 414.72 41.810721 
" style="fill:none;stroke:#b0b0b0;stroke-linecap:square;stroke-width:0.8;"/>
     </g>
     <g id="line2d_24">
      <g>
       <use style="stroke:#000000;stroke-width:0.8;" x="57.6" xlink:href="#mfd33db4867" y="41.810721"/>
      </g>
     </g>
     <g id="text_13">
      <!-- 2000 -->
      <g transform="translate(25.15 45.60994)scale(0.1 -0.1)">
       <use xlink:href="#DejaVuSans-32"/>
       <use x="63.623047" xlink:href="#DejaVuSans-30"/>
       <use x="127.246094" xlink:href="#DejaVuSans-30"/>
       <use x="190.869141" xlink:href="#DejaVuSans-30"/>
      </g>
     </g>
    </g>
    <g id="text_14">
     <!-- Fitness -->
     <g transform="translate(17.053125 191.845187)rotate(-90)scale(0.1 -0.1)">
      <defs>
       <path d="M 628 4666 
L 3309 4666 
L 3309 4134 
L 1259 4134 
L 1259 2759 
L 3109 2759 
L 3109 2228 
L 1259 2228 
L 1259 0 
L 628 0 
L 628 4666 
z
" id="DejaVuSans-46" transform="scale(0.015625)"/>
      </defs>
      <use xlink:href="#DejaVuSans-46"/>
      <use x="50.269531" xlink:href="#DejaVuSans-69"/>
      <use x="78.052734" xlink:href="#DejaVuSans-74"/>
      <use x="117.261719" xlink:href="#DejaVuSans-6e"/>
      <use x="180.640625" xlink:href="#DejaVuSans-65"/>
      <use x="242.164062" xlink:href="#DejaVuSans-73"/>
      <use x="294.263672" xlink:href="#DejaVuSans-73"/>
     </g>
    </g>
   </g>
   <g id="line2d_25">
    <path clip-path="url(#p2824f20b17)" d="M 73.832727 252.788075 
L 75.057839 245.516703 
L 76.28295 246.478542 
L 77.508062 245.868019 
L 78.733173 247.040767 
L 79.958285 244.530309 
L 81.183396 245.507298 
L 82.408508 243.36161 
L 83.633619 244.790476 
L 84.858731 246.465157 
L 86.083842 247.314273 
L 87.308954 245.030005 
L 88.534065 244.679081 
L 89.759177 246.099347 
L 90.984288 245.996202 
L 92.2094 244.313545 
L 93.434511 246.005782 
L 94.659623 244.166288 
L 95.884734 246.548328 
L 97.109846 247.469697 
L 98.334957 245.238679 
L 99.560069 243.977883 
L 100.78518 246.994924 
L 102.010292 246.093242 
L 103.235403 246.307647 
L 104.460515 244.055092 
L 106.910738 245.990869 
L 108.135849 246.689449 
L 109.360961 244.693465 
L 110.586072 242.271327 
L 111.811184 244.226671 
L 113.036295 248.663018 
L 114.261407 244.789722 
L 115.486518 244.918637 
L 116.71163 245.311763 
L 117.936741 245.006304 
L 119.161852 241.898961 
L 120.386964 239.908868 
L 121.612075 238.459168 
L 122.837187 232.758409 
L 124.062298 231.772877 
L 125.28741 231.451519 
L 126.512521 231.961928 
L 127.737633 229.053391 
L 128.962744 227.561802 
L 130.187856 230.187814 
L 131.412967 228.399688 
L 132.638079 230.045472 
L 133.86319 232.981494 
L 135.088302 226.663441 
L 136.313413 229.309856 
L 137.538525 227.196706 
L 138.763636 231.153457 
L 139.988748 230.115751 
L 141.213859 229.579575 
L 142.438971 232.609176 
L 143.664082 227.686915 
L 144.889194 229.479676 
L 146.114305 229.857946 
L 147.339417 234.901878 
L 148.564528 233.089987 
L 149.78964 235.985655 
L 151.014751 229.404679 
L 152.239863 232.260561 
L 153.464974 233.018062 
L 154.690086 233.338458 
L 155.915197 229.963483 
L 157.140309 232.717282 
L 158.36542 230.222074 
L 162.040755 236.747795 
L 163.265866 231.791901 
L 164.490978 233.00227 
L 165.716089 232.488688 
L 166.941201 234.716979 
L 168.166312 237.830855 
L 169.391424 232.203351 
L 170.616535 231.951546 
L 171.841647 234.64348 
L 173.066758 234.418114 
L 174.29187 232.168125 
L 175.516981 231.227221 
L 176.742093 235.929912 
L 177.967204 234.7617 
L 179.192316 233.119731 
L 180.417427 236.069777 
L 181.642539 234.864074 
L 182.86765 231.873478 
L 184.092762 235.619887 
L 185.317873 237.844599 
L 186.542985 237.256115 
L 187.768096 235.037944 
L 188.993208 236.076296 
L 190.218319 231.050774 
L 191.443431 234.4302 
L 192.668542 235.536974 
L 193.893654 234.536371 
L 195.118765 235.343167 
L 196.343877 233.576292 
L 197.568988 229.232289 
L 200.019211 234.319512 
L 201.244322 232.140224 
L 202.469434 237.964223 
L 203.694545 233.378093 
L 204.919657 231.291824 
L 206.144768 234.690643 
L 207.36988 229.761586 
L 208.594991 230.27617 
L 209.820103 235.309474 
L 211.045214 235.424246 
L 212.270326 235.736146 
L 213.495437 233.589905 
L 214.720549 229.032407 
L 215.94566 233.212394 
L 217.170772 236.461237 
L 218.395883 231.001472 
L 219.620995 229.614088 
L 220.846106 231.649254 
L 222.071218 229.123286 
L 223.296329 233.536884 
L 224.521441 234.69988 
L 225.746552 230.649731 
L 226.971664 232.289146 
L 228.196775 231.119638 
L 229.421887 236.111463 
L 230.646998 235.226131 
L 233.097221 229.896849 
L 234.322333 234.432847 
L 235.547444 234.982424 
L 236.772556 233.863284 
L 237.997667 229.111147 
L 239.222779 227.9467 
L 240.44789 235.767581 
L 241.673002 237.985059 
L 242.898113 238.202342 
L 244.123225 233.142822 
L 245.348336 234.60976 
L 246.573448 231.584129 
L 247.798559 233.444511 
L 250.248782 232.28795 
L 251.473894 235.033803 
L 252.699005 232.14414 
L 253.924117 235.18405 
L 255.149228 227.479894 
L 256.37434 225.81599 
L 257.599451 236.060495 
L 258.824563 234.389326 
L 260.049674 233.917617 
L 261.274786 233.086239 
L 262.499897 231.906491 
L 263.725009 232.927906 
L 264.95012 231.570557 
L 266.175232 227.930943 
L 267.400343 234.22686 
L 268.625455 229.748112 
L 269.850566 231.440944 
L 271.075678 231.493221 
L 272.300789 232.543458 
L 273.525901 236.351659 
L 274.751012 234.924444 
L 275.976123 239.175886 
L 277.201235 237.312977 
L 278.426346 234.800652 
L 279.651458 232.772142 
L 280.876569 232.111093 
L 282.101681 237.387654 
L 283.326792 235.554725 
L 284.551904 233.122601 
L 285.777015 235.593 
L 287.002127 234.055567 
L 288.227238 231.865823 
L 289.45235 233.461843 
L 290.677461 234.281394 
L 291.902573 241.001386 
L 293.127684 236.289157 
L 294.352796 236.428949 
L 295.577907 237.032953 
L 296.803019 233.893496 
L 298.02813 236.615428 
L 299.253242 230.47903 
L 300.478353 233.801402 
L 301.703465 235.686887 
L 302.928576 232.56738 
L 304.153688 230.820466 
L 305.378799 234.240444 
L 306.603911 234.944089 
L 307.829022 232.349075 
L 309.054134 228.904399 
L 310.279245 234.958933 
L 311.504357 234.74213 
L 312.729468 230.879085 
L 313.95458 229.535794 
L 315.179691 232.725069 
L 316.404803 240.216837 
L 317.629914 234.037943 
L 318.855026 235.286532 
L 320.080137 232.115739 
L 321.305249 229.61895 
L 322.53036 231.135122 
L 323.755472 231.180627 
L 324.980583 229.58099 
L 326.205695 235.108066 
L 327.430806 234.433801 
L 328.655918 234.157119 
L 329.881029 232.91847 
L 331.106141 238.267871 
L 332.331252 236.723414 
L 333.556364 233.587976 
L 334.781475 231.736528 
L 336.006587 239.663614 
L 337.231698 230.76947 
L 338.45681 235.668163 
L 339.681921 232.649842 
L 340.907033 233.368147 
L 343.357256 233.773872 
L 345.807479 232.145887 
L 347.03259 232.635166 
L 348.257702 233.70939 
L 349.482813 235.875253 
L 350.707925 230.786574 
L 351.933036 238.147099 
L 353.158148 228.498674 
L 354.383259 228.135107 
L 355.60837 229.834351 
L 356.833482 234.19523 
L 358.058593 228.606559 
L 359.283705 233.100745 
L 360.508816 231.545418 
L 361.733928 231.432476 
L 362.959039 236.266136 
L 364.184151 232.762173 
L 365.409262 233.549772 
L 366.634374 234.533484 
L 367.859485 230.737586 
L 369.084597 230.479193 
L 370.309708 228.484269 
L 371.53482 234.733552 
L 372.759931 232.54303 
L 373.985043 229.454975 
L 375.210154 227.814357 
L 376.435266 231.489632 
L 377.660377 232.616468 
L 378.885489 234.277591 
L 380.1106 231.925064 
L 381.335712 230.244865 
L 382.560823 231.116737 
L 383.785935 234.374239 
L 385.011046 231.336706 
L 386.236158 233.101188 
L 387.461269 234.40788 
L 388.686381 233.778292 
L 389.911492 231.810312 
L 391.136604 229.512941 
L 392.361715 232.417887 
L 393.586827 232.056995 
L 394.811938 233.440054 
L 396.03705 237.831205 
L 397.262161 230.274956 
L 398.487273 235.278089 
L 398.487273 235.278089 
" style="fill:none;stroke:#0000ff;stroke-linecap:square;stroke-width:1.5;"/>
   </g>
   <g id="line2d_26">
    <path clip-path="url(#p2824f20b17)" d="M 73.832727 295.488 
L 75.057839 284.900314 
L 76.28295 286.414046 
L 77.508062 285.457906 
L 78.733173 287.266645 
L 79.958285 283.373866 
L 81.183396 284.897379 
L 82.408508 281.4701 
L 83.633619 283.782648 
L 84.858731 286.371242 
L 86.083842 287.658375 
L 87.308954 284.143565 
L 88.534065 283.614241 
L 89.759177 285.813135 
L 90.984288 285.659511 
L 92.2094 283.034146 
L 93.434511 285.706382 
L 94.659623 282.792185 
L 95.884734 286.525018 
L 97.109846 287.900316 
L 98.334957 284.493016 
L 99.560069 282.46303 
L 100.78518 287.251023 
L 102.010292 285.855742 
L 103.235403 286.184202 
L 104.460515 282.65916 
L 106.910738 285.657778 
L 108.135849 286.771095 
L 109.360961 283.661716 
L 110.586072 279.725872 
L 111.811184 282.949505 
L 113.036295 289.70759 
L 114.261407 283.841836 
L 115.486518 284.097086 
L 116.71163 284.68255 
L 117.936741 284.19645 
L 119.161852 279.186834 
L 120.386964 275.726597 
L 121.612075 273.056178 
L 122.837187 261.802505 
L 124.062298 259.589668 
L 125.28741 258.917063 
L 126.512521 260.161868 
L 127.737633 253.230816 
L 128.962744 249.662677 
L 130.187856 256.229715 
L 131.412967 251.70239 
L 132.638079 256.049073 
L 133.86319 262.674279 
L 135.088302 246.936813 
L 136.313413 254.087307 
L 137.538525 248.584062 
L 138.763636 258.589917 
L 139.988748 256.346049 
L 141.213859 255.167677 
L 142.438971 261.964 
L 143.664082 250.177739 
L 144.889194 254.797156 
L 146.114305 255.793499 
L 147.339417 266.802074 
L 148.564528 263.32663 
L 149.78964 269.100383 
L 151.014751 254.823548 
L 152.239863 261.63924 
L 153.464974 263.321571 
L 154.690086 263.613317 
L 155.915197 256.205289 
L 157.140309 262.581671 
L 158.36542 256.899398 
L 160.815643 267.152114 
L 162.040755 270.884699 
L 163.265866 261.095829 
L 164.490978 263.723974 
L 165.716089 262.463505 
L 166.941201 267.638712 
L 168.166312 273.393398 
L 169.391424 262.696922 
L 170.616535 261.590303 
L 171.841647 266.829897 
L 173.066758 266.288894 
L 174.29187 262.466513 
L 175.516981 260.120488 
L 176.742093 269.761839 
L 177.967204 267.587268 
L 179.192316 264.007238 
L 180.417427 269.749182 
L 181.642539 267.342538 
L 182.86765 261.219147 
L 184.092762 269.300606 
L 185.317873 273.12131 
L 186.542985 272.357617 
L 187.768096 267.886479 
L 188.993208 270.346994 
L 190.218319 259.455138 
L 191.443431 266.564394 
L 192.668542 268.687639 
L 193.893654 267.02892 
L 195.118765 269.072846 
L 196.343877 265.681905 
L 197.568988 255.803923 
L 198.794099 261.938681 
L 200.019211 267.33623 
L 201.244322 262.641293 
L 202.469434 274.266685 
L 203.694545 265.023193 
L 204.919657 262.072626 
L 206.144768 268.686349 
L 207.36988 257.274684 
L 208.594991 259.771277 
L 209.820103 269.850074 
L 211.045214 270.560296 
L 212.270326 270.80914 
L 213.495437 266.994334 
L 214.720549 256.767434 
L 215.94566 266.257453 
L 217.170772 273.146977 
L 218.395883 261.819909 
L 219.620995 258.221696 
L 220.846106 263.103825 
L 222.071218 257.162653 
L 223.296329 266.721823 
L 224.521441 269.356988 
L 225.746552 260.414904 
L 226.971664 265.53828 
L 228.196775 262.244512 
L 229.421887 271.232218 
L 230.646998 270.300516 
L 231.87211 265.316497 
L 233.097221 258.088767 
L 234.322333 268.483393 
L 235.547444 270.218991 
L 236.772556 268.696173 
L 237.997667 259.401953 
L 239.222779 255.608237 
L 240.44789 272.038066 
L 241.673002 276.375424 
L 242.898113 275.940597 
L 244.123225 266.852729 
L 245.348336 269.806928 
L 246.573448 263.43151 
L 247.798559 266.166736 
L 249.023671 265.038391 
L 250.248782 264.311647 
L 251.473894 269.26888 
L 252.699005 264.224455 
L 253.924117 270.800403 
L 255.149228 253.558361 
L 256.37434 248.935871 
L 257.599451 271.108936 
L 258.824563 268.477662 
L 260.049674 267.129472 
L 261.274786 266.202226 
L 262.499897 263.845894 
L 263.725009 265.435807 
L 264.95012 262.043739 
L 266.175232 253.651308 
L 267.400343 268.276404 
L 268.625455 259.031798 
L 269.850566 262.501461 
L 271.075678 263.841074 
L 272.300789 265.485719 
L 273.525901 272.452299 
L 274.751012 269.435385 
L 275.976123 276.839703 
L 278.426346 269.141882 
L 279.651458 264.306354 
L 280.876569 262.770016 
L 282.101681 273.598584 
L 283.326792 270.12603 
L 284.551904 265.87909 
L 285.777015 270.128683 
L 287.002127 267.305139 
L 288.227238 263.18086 
L 289.45235 267.065275 
L 290.677461 268.665103 
L 291.902573 279.808932 
L 293.127684 271.172025 
L 294.352796 271.137816 
L 295.577907 272.743835 
L 296.803019 266.927481 
L 298.02813 272.620657 
L 299.253242 261.111343 
L 300.478353 267.427714 
L 301.703465 270.861222 
L 302.928576 265.319768 
L 304.153688 261.023902 
L 305.378799 268.912148 
L 306.603911 270.082738 
L 307.829022 264.600205 
L 309.054134 257.347902 
L 310.279245 269.15526 
L 311.504357 269.031476 
L 312.729468 260.71389 
L 313.95458 257.908743 
L 315.179691 265.427745 
L 316.404803 277.631035 
L 317.629914 266.652335 
L 318.855026 268.981987 
L 320.080137 263.44352 
L 321.305249 258.569952 
L 322.53036 260.721521 
L 323.755472 261.953507 
L 324.980583 258.060133 
L 326.205695 269.594713 
L 328.655918 268.397946 
L 329.881029 266.220662 
L 331.106141 276.256161 
L 332.331252 272.88759 
L 333.556364 266.855788 
L 334.781475 262.980988 
L 336.006587 278.373484 
L 337.231698 262.258035 
L 338.45681 271.976834 
L 339.681921 266.047706 
L 340.907033 268.046523 
L 342.132144 268.873366 
L 343.357256 269.307532 
L 344.582367 267.155708 
L 345.807479 265.634123 
L 347.03259 266.801674 
L 348.257702 269.233068 
L 349.482813 272.516644 
L 350.707925 264.500097 
L 351.933036 277.799157 
L 353.158148 259.262343 
L 354.383259 261.16806 
L 355.60837 264.51105 
L 356.833482 271.346534 
L 358.058593 259.39818 
L 359.283705 269.093433 
L 360.508816 265.9716 
L 361.733928 265.803884 
L 362.959039 273.842759 
L 364.184151 266.25592 
L 365.409262 269.173245 
L 366.634374 269.157378 
L 367.859485 262.769023 
L 369.084597 262.200476 
L 370.309708 258.144159 
L 371.53482 272.150331 
L 372.759931 267.301435 
L 373.985043 261.828877 
L 375.210154 259.247927 
L 376.435266 266.738391 
L 378.885489 272.288676 
L 380.1106 265.32195 
L 381.335712 260.578798 
L 382.560823 262.176734 
L 383.785935 267.958255 
L 385.011046 263.166591 
L 387.461269 269.223483 
L 388.686381 268.691261 
L 389.911492 264.801919 
L 391.136604 260.184497 
L 392.361715 266.61061 
L 393.586827 266.046363 
L 394.811938 268.535817 
L 396.03705 278.118222 
L 397.262161 265.614094 
L 398.487273 276.486802 
L 398.487273 276.486802 
" style="fill:none;stroke:#008000;stroke-dasharray:9.6,2.4,1.5,2.4;stroke-dashoffset:0;stroke-width:1.5;"/>
   </g>
   <g id="line2d_27">
    <path clip-path="url(#p2824f20b17)" d="M 73.832727 210.08815 
L 75.057839 206.133092 
L 76.28295 206.543038 
L 77.508062 206.278131 
L 78.733173 206.814888 
L 79.958285 205.686752 
L 81.183396 206.117217 
L 82.408508 205.253119 
L 83.633619 205.798305 
L 84.858731 206.559072 
L 86.083842 206.970171 
L 87.308954 205.916445 
L 88.534065 205.743922 
L 89.759177 206.385558 
L 90.984288 206.332893 
L 92.2094 205.592944 
L 93.434511 206.305182 
L 94.659623 205.54039 
L 95.884734 206.571639 
L 97.109846 207.039078 
L 98.334957 205.984342 
L 99.560069 205.492735 
L 100.78518 206.738825 
L 102.010292 206.330742 
L 103.235403 206.431091 
L 104.460515 205.451023 
L 108.135849 206.607802 
L 110.586072 204.816782 
L 111.811184 205.503836 
L 113.036295 207.618446 
L 114.261407 205.737608 
L 115.486518 205.740189 
L 116.71163 205.940976 
L 117.936741 205.816157 
L 119.161852 204.611088 
L 120.386964 204.091139 
L 122.837187 203.714312 
L 124.062298 203.956087 
L 125.28741 203.985976 
L 126.512521 203.761987 
L 127.737633 204.875965 
L 128.962744 205.460927 
L 130.187856 204.145912 
L 131.412967 205.096986 
L 132.638079 204.041871 
L 133.86319 203.28871 
L 135.088302 206.39007 
L 136.313413 204.532405 
L 137.538525 205.809349 
L 138.763636 203.716996 
L 141.213859 203.991473 
L 142.438971 203.254352 
L 143.664082 205.19609 
L 144.889194 204.162196 
L 146.114305 203.922393 
L 147.339417 203.001682 
L 148.564528 202.853345 
L 149.78964 202.870927 
L 151.014751 203.985809 
L 152.239863 202.881882 
L 153.464974 202.714553 
L 154.690086 203.063598 
L 155.915197 203.721676 
L 157.140309 202.852894 
L 158.36542 203.544751 
L 159.590532 202.542057 
L 160.815643 202.40806 
L 162.040755 202.61089 
L 164.490978 202.280566 
L 165.716089 202.513872 
L 166.941201 201.795246 
L 168.166312 202.268311 
L 169.391424 201.709779 
L 170.616535 202.312789 
L 173.066758 202.547335 
L 174.29187 201.869737 
L 175.516981 202.333954 
L 177.967204 201.936131 
L 179.192316 202.232223 
L 180.417427 202.390372 
L 181.642539 202.38561 
L 182.86765 202.52781 
L 184.092762 201.939168 
L 185.317873 202.567888 
L 186.542985 202.154614 
L 187.768096 202.189408 
L 188.993208 201.805598 
L 190.218319 202.64641 
L 191.443431 202.296007 
L 192.668542 202.38631 
L 196.343877 201.470679 
L 197.568988 202.660654 
L 198.794099 201.540744 
L 200.019211 201.302794 
L 201.244322 201.639154 
L 203.694545 201.732993 
L 204.919657 200.511023 
L 206.144768 200.694937 
L 207.36988 202.248488 
L 208.594991 200.781062 
L 209.820103 200.768874 
L 211.045214 200.288195 
L 212.270326 200.663151 
L 213.495437 200.185476 
L 214.720549 201.29738 
L 215.94566 200.167336 
L 217.170772 199.775498 
L 218.395883 200.183035 
L 219.620995 201.00648 
L 220.846106 200.194682 
L 222.071218 201.083918 
L 223.296329 200.351945 
L 224.521441 200.042773 
L 225.746552 200.884557 
L 226.971664 199.040012 
L 229.421887 200.990708 
L 230.646998 200.151746 
L 231.87211 199.864869 
L 233.097221 201.70493 
L 234.322333 200.3823 
L 236.772556 199.030394 
L 237.997667 198.820341 
L 239.222779 200.285163 
L 240.44789 199.497097 
L 241.673002 199.594695 
L 242.898113 200.464086 
L 244.123225 199.432915 
L 245.348336 199.412592 
L 246.573448 199.736748 
L 247.798559 200.722285 
L 249.023671 200.618872 
L 250.248782 200.264252 
L 251.473894 200.798726 
L 252.699005 200.063825 
L 253.924117 199.567697 
L 255.149228 201.401427 
L 256.37434 202.69611 
L 257.599451 201.012055 
L 258.824563 200.300991 
L 260.049674 200.705763 
L 261.274786 199.970251 
L 262.499897 199.967087 
L 263.725009 200.420004 
L 264.95012 201.097374 
L 266.175232 202.210578 
L 267.400343 200.177316 
L 268.625455 200.464427 
L 269.850566 200.380427 
L 271.075678 199.145369 
L 272.300789 199.601197 
L 273.525901 200.251018 
L 274.751012 200.413504 
L 275.976123 201.512069 
L 277.201235 201.524188 
L 278.426346 200.459421 
L 279.651458 201.237931 
L 280.876569 201.45217 
L 283.326792 200.98342 
L 284.551904 200.366113 
L 285.777015 201.057317 
L 288.227238 200.550786 
L 289.45235 199.858411 
L 290.677461 199.897684 
L 291.902573 202.19384 
L 293.127684 201.406289 
L 294.352796 201.720082 
L 298.02813 200.610199 
L 299.253242 199.846718 
L 301.703465 200.512553 
L 302.928576 199.814991 
L 304.153688 200.61703 
L 305.378799 199.56874 
L 307.829022 200.097945 
L 310.279245 200.762606 
L 311.504357 200.452784 
L 312.729468 201.04428 
L 313.95458 201.162845 
L 315.179691 200.022393 
L 316.404803 202.80264 
L 317.629914 201.42355 
L 318.855026 201.591077 
L 320.080137 200.787957 
L 321.305249 200.667949 
L 322.53036 201.548722 
L 323.755472 200.407747 
L 324.980583 201.101846 
L 326.205695 200.621419 
L 327.430806 199.884298 
L 328.655918 199.916292 
L 329.881029 199.616278 
L 331.106141 200.279582 
L 332.331252 200.559237 
L 333.556364 200.320163 
L 334.781475 200.492068 
L 336.006587 200.953744 
L 337.231698 199.280904 
L 338.45681 199.359493 
L 339.681921 199.251977 
L 342.132144 198.201542 
L 343.357256 198.240212 
L 344.582367 198.823573 
L 347.03259 198.468659 
L 348.257702 198.185712 
L 349.482813 199.233862 
L 350.707925 197.073051 
L 351.933036 198.49504 
L 353.158148 197.735005 
L 354.383259 195.102154 
L 355.60837 195.157652 
L 356.833482 197.043926 
L 358.058593 197.814938 
L 359.283705 197.108057 
L 361.733928 197.061068 
L 362.959039 198.689514 
L 364.184151 199.268426 
L 365.409262 197.9263 
L 366.634374 199.90959 
L 367.859485 198.706149 
L 370.309708 198.82438 
L 371.53482 197.316773 
L 372.759931 197.784625 
L 375.210154 196.380786 
L 376.435266 196.240873 
L 377.660377 195.754262 
L 378.885489 196.266506 
L 380.1106 198.528177 
L 381.335712 199.910933 
L 382.560823 200.056741 
L 383.785935 200.790223 
L 385.011046 199.506822 
L 386.236158 199.881095 
L 387.461269 199.592276 
L 388.686381 198.865323 
L 391.136604 198.841384 
L 392.361715 198.225165 
L 393.586827 198.067627 
L 394.811938 198.344292 
L 396.03705 197.544187 
L 397.262161 194.935819 
L 398.487273 194.069376 
L 398.487273 194.069376 
" style="fill:none;stroke:#008000;stroke-dasharray:9.6,2.4,1.5,2.4;stroke-dashoffset:0;stroke-width:1.5;"/>
   </g>
   <g id="line2d_28">
    <path clip-path="url(#p2824f20b17)" d="M 73.832727 219.658215 
L 75.057839 216.656664 
L 76.28295 208.928429 
L 77.508062 216.972427 
L 78.733173 210.344845 
L 79.958285 208.627118 
L 81.183396 216.0311 
L 83.633619 215.963721 
L 84.858731 213.183457 
L 86.083842 214.584518 
L 87.308954 213.764221 
L 88.534065 216.251484 
L 89.759177 214.131286 
L 90.984288 217.011446 
L 92.2094 216.457958 
L 93.434511 209.633295 
L 94.659623 213.458394 
L 95.884734 213.183457 
L 97.109846 216.825204 
L 98.334957 217.023368 
L 99.560069 216.314889 
L 100.78518 214.294587 
L 102.010292 214.401708 
L 103.235403 216.556589 
L 104.460515 216.885538 
L 105.685626 216.996452 
L 108.135849 219.068238 
L 109.360961 219.455896 
L 110.586072 219.346246 
L 111.811184 217.751898 
L 113.036295 219.342453 
L 114.261407 219.407665 
L 115.486518 216.795217 
L 116.71163 216.840739 
L 117.936741 219.332156 
L 119.161852 219.35293 
L 120.386964 219.855115 
L 121.612075 220.05599 
L 122.837187 215.685351 
L 124.062298 219.375691 
L 125.28741 216.41352 
L 126.512521 216.147795 
L 127.737633 214.845365 
L 128.962744 210.073159 
L 130.187856 210.645434 
L 131.412967 210.069366 
L 132.638079 210.858953 
L 133.86319 217.90436 
L 136.313413 217.600881 
L 137.538525 217.951869 
L 138.763636 217.74955 
L 139.988748 217.875457 
L 141.213859 216.532202 
L 142.438971 218.14624 
L 143.664082 217.681809 
L 144.889194 217.946269 
L 146.114305 215.705041 
L 147.339417 215.627907 
L 148.564528 215.193463 
L 149.78964 212.599621 
L 151.014751 213.400227 
L 152.239863 214.996924 
L 153.464974 202.237261 
L 154.690086 217.483644 
L 155.915197 213.629643 
L 157.140309 214.002308 
L 158.36542 213.649514 
L 159.590532 202.280074 
L 160.815643 213.632714 
L 162.040755 213.644817 
L 163.265866 214.759741 
L 164.490978 214.567176 
L 165.716089 209.050905 
L 166.941201 207.088589 
L 168.166312 206.866941 
L 169.391424 200.614733 
L 170.616535 205.696198 
L 171.841647 200.499303 
L 173.066758 210.744426 
L 174.29187 197.20746 
L 175.516981 197.245756 
L 176.742093 194.953587 
L 177.967204 187.863019 
L 179.192316 197.179821 
L 180.417427 197.212337 
L 181.642539 198.259701 
L 182.86765 200.589804 
L 184.092762 187.861393 
L 185.317873 197.678755 
L 186.542985 197.406347 
L 187.768096 200.063052 
L 188.993208 190.590897 
L 190.218319 188.196665 
L 191.443431 197.031695 
L 192.668542 198.943612 
L 193.893654 198.032633 
L 195.118765 191.259815 
L 196.343877 190.826093 
L 197.568988 199.582724 
L 198.794099 195.920384 
L 200.019211 197.464875 
L 201.244322 199.420869 
L 202.469434 191.196771 
L 203.694545 198.665062 
L 204.919657 188.800552 
L 206.144768 195.177222 
L 207.36988 197.614266 
L 208.594991 190.854996 
L 209.820103 197.007669 
L 211.045214 191.062192 
L 212.270326 193.23586 
L 213.495437 190.854996 
L 214.720549 197.100158 
L 215.94566 189.382039 
L 217.170772 175.136052 
L 218.395883 180.634079 
L 219.620995 194.254863 
L 220.846106 191.38771 
L 222.071218 191.216641 
L 223.296329 190.844699 
L 224.521441 192.941052 
L 225.746552 194.009731 
L 226.971664 190.137846 
L 228.196775 190.060351 
L 229.421887 198.871355 
L 230.646998 190.915691 
L 231.87211 193.368271 
L 233.097221 198.370615 
L 234.322333 195.96428 
L 235.547444 191.071766 
L 236.772556 188.742566 
L 237.997667 190.761423 
L 239.222779 191.571784 
L 241.673002 191.097418 
L 242.898113 194.57189 
L 244.123225 191.90543 
L 245.348336 192.565316 
L 246.573448 189.937875 
L 247.798559 196.956367 
L 249.023671 190.827357 
L 250.248782 195.115442 
L 251.473894 194.028699 
L 252.699005 191.115482 
L 253.924117 190.048609 
L 255.149228 193.519288 
L 256.37434 195.769367 
L 257.599451 191.900011 
L 258.824563 194.044234 
L 260.049674 191.286369 
L 261.274786 164.324074 
L 262.499897 164.001267 
L 263.725009 192.020138 
L 264.95012 191.383374 
L 266.175232 195.669111 
L 267.400343 191.28655 
L 268.625455 191.499166 
L 269.850566 192.621857 
L 271.075678 191.499166 
L 272.300789 194.467479 
L 273.525901 193.031373 
L 274.751012 195.540855 
L 275.976123 189.616874 
L 277.201235 194.67612 
L 278.426346 189.76771 
L 279.651458 195.85734 
L 280.876569 191.121262 
L 282.101681 194.352229 
L 283.326792 193.321846 
L 284.551904 189.698344 
L 285.777015 193.029205 
L 287.002127 189.94474 
L 288.227238 193.80687 
L 289.45235 190.503285 
L 290.677461 185.825917 
L 291.902573 195.852824 
L 295.577907 195.897081 
L 296.803019 195.869081 
L 298.02813 189.70864 
L 299.253242 189.244751 
L 300.478353 186.42041 
L 301.703465 191.73671 
L 302.928576 191.098863 
L 304.153688 191.057857 
L 305.378799 188.154395 
L 306.603911 187.853806 
L 307.829022 186.927111 
L 309.054134 187.895173 
L 310.279245 187.33446 
L 312.729468 188.236587 
L 313.95458 188.372972 
L 315.179691 187.682196 
L 316.404803 187.647874 
L 317.629914 196.841298 
L 318.855026 196.899826 
L 320.080137 195.287594 
L 321.305249 193.989319 
L 322.53036 194.354216 
L 323.755472 194.040621 
L 324.980583 194.897226 
L 326.205695 194.006118 
L 327.430806 191.429799 
L 328.655918 190.897989 
L 329.881029 190.841989 
L 331.106141 190.930865 
L 333.556364 190.918762 
L 334.781475 193.428786 
L 336.006587 164.613644 
L 337.231698 160.342178 
L 338.45681 163.081075 
L 339.681921 164.197444 
L 340.907033 163.806173 
L 342.132144 163.226673 
L 343.357256 164.057988 
L 344.582367 159.624306 
L 345.807479 163.10221 
L 348.257702 156.174762 
L 349.482813 159.307098 
L 350.707925 155.969914 
L 351.933036 156.372746 
L 354.383259 155.860084 
L 356.833482 156.063487 
L 358.058593 156.071435 
L 359.283705 155.929089 
L 360.508816 156.090402 
L 362.959039 162.020164 
L 365.409262 162.307204 
L 366.634374 161.527733 
L 367.859485 162.142097 
L 370.309708 161.891546 
L 372.759931 161.655808 
L 373.985043 154.365631 
L 375.210154 144.188248 
L 376.435266 152.305406 
L 377.660377 133.988467 
L 378.885489 149.273869 
L 380.1106 136.389563 
L 381.335712 160.121072 
L 382.560823 159.984145 
L 383.785935 197.352877 
L 385.011046 160.123059 
L 386.236158 159.929772 
L 387.461269 158.753069 
L 388.686381 160.134259 
L 389.911492 159.135849 
L 391.136604 159.758342 
L 392.361715 160.022803 
L 393.586827 159.948197 
L 394.811938 160.123059 
L 396.03705 118.601363 
L 397.262161 107.58255 
L 398.487273 53.568 
L 398.487273 53.568 
" style="fill:none;stroke:#ff0000;stroke-linecap:square;stroke-width:1.5;"/>
   </g>
   <g id="patch_3">
    <path d="M 57.6 307.584 
L 57.6 41.472 
" style="fill:none;stroke:#000000;stroke-linecap:square;stroke-linejoin:miter;stroke-width:0.8;"/>
   </g>
   <g id="patch_4">
    <path d="M 414.72 307.584 
L 414.72 41.472 
" style="fill:none;stroke:#000000;stroke-linecap:square;stroke-linejoin:miter;stroke-width:0.8;"/>
   </g>
   <g id="patch_5">
    <path d="M 57.6 307.584 
L 414.72 307.584 
" style="fill:none;stroke:#000000;stroke-linecap:square;stroke-linejoin:miter;stroke-width:0.8;"/>
   </g>
   <g id="patch_6">
    <path d="M 57.6 41.472 
L 414.72 41.472 
" style="fill:none;stroke:#000000;stroke-linecap:square;stroke-linejoin:miter;stroke-width:0.8;"/>
   </g>
   <g id="text_15">
    <!-- Population's average and best fitness -->
    <g transform="translate(123.529687 35.472)scale(0.12 -0.12)">
     <defs>
      <path d="M 1259 4147 
L 1259 2394 
L 2053 2394 
Q 2494 2394 2734 2622 
Q 2975 2850 2975 3272 
Q 2975 3691 2734 3919 
Q 2494 4147 2053 4147 
L 1259 4147 
z
M 628 4666 
L 2053 4666 
Q 2838 4666 3239 4311 
Q 3641 3956 3641 3272 
Q 3641 2581 3239 2228 
Q 2838 1875 2053 1875 
L 1259 1875 
L 1259 0 
L 628 0 
L 628 4666 
z
" id="DejaVuSans-50" transform="scale(0.015625)"/>
      <path d="M 1159 525 
L 1159 -1331 
L 581 -1331 
L 581 3500 
L 1159 3500 
L 1159 2969 
Q 1341 3281 1617 3432 
Q 1894 3584 2278 3584 
Q 2916 3584 3314 3078 
Q 3713 2572 3713 1747 
Q 3713 922 3314 415 
Q 2916 -91 2278 -91 
Q 1894 -91 1617 61 
Q 1341 213 1159 525 
z
M 3116 1747 
Q 3116 2381 2855 2742 
Q 2594 3103 2138 3103 
Q 1681 3103 1420 2742 
Q 1159 2381 1159 1747 
Q 1159 1113 1420 752 
Q 1681 391 2138 391 
Q 2594 391 2855 752 
Q 3116 1113 3116 1747 
z
" id="DejaVuSans-70" transform="scale(0.015625)"/>
      <path d="M 544 1381 
L 544 3500 
L 1119 3500 
L 1119 1403 
Q 1119 906 1312 657 
Q 1506 409 1894 409 
Q 2359 409 2629 706 
Q 2900 1003 2900 1516 
L 2900 3500 
L 3475 3500 
L 3475 0 
L 2900 0 
L 2900 538 
Q 2691 219 2414 64 
Q 2138 -91 1772 -91 
Q 1169 -91 856 284 
Q 544 659 544 1381 
z
M 1991 3584 
L 1991 3584 
z
" id="DejaVuSans-75" transform="scale(0.015625)"/>
      <path d="M 603 4863 
L 1178 4863 
L 1178 0 
L 603 0 
L 603 4863 
z
" id="DejaVuSans-6c" transform="scale(0.015625)"/>
      <path d="M 1147 4666 
L 1147 2931 
L 616 2931 
L 616 4666 
L 1147 4666 
z
" id="DejaVuSans-27" transform="scale(0.015625)"/>
      <path id="DejaVuSans-20" transform="scale(0.015625)"/>
      <path d="M 191 3500 
L 800 3500 
L 1894 563 
L 2988 3500 
L 3597 3500 
L 2284 0 
L 1503 0 
L 191 3500 
z
" id="DejaVuSans-76" transform="scale(0.015625)"/>
      <path d="M 2906 1791 
Q 2906 2416 2648 2759 
Q 2391 3103 1925 3103 
Q 1463 3103 1205 2759 
Q 947 2416 947 1791 
Q 947 1169 1205 825 
Q 1463 481 1925 481 
Q 2391 481 2648 825 
Q 2906 1169 2906 1791 
z
M 3481 434 
Q 3481 -459 3084 -895 
Q 2688 -1331 1869 -1331 
Q 1566 -1331 1297 -1286 
Q 1028 -1241 775 -1147 
L 775 -588 
Q 1028 -725 1275 -790 
Q 1522 -856 1778 -856 
Q 2344 -856 2625 -561 
Q 2906 -266 2906 331 
L 2906 616 
Q 2728 306 2450 153 
Q 2172 0 1784 0 
Q 1141 0 747 490 
Q 353 981 353 1791 
Q 353 2603 747 3093 
Q 1141 3584 1784 3584 
Q 2172 3584 2450 3431 
Q 2728 3278 2906 2969 
L 2906 3500 
L 3481 3500 
L 3481 434 
z
" id="DejaVuSans-67" transform="scale(0.015625)"/>
      <path d="M 2906 2969 
L 2906 4863 
L 3481 4863 
L 3481 0 
L 2906 0 
L 2906 525 
Q 2725 213 2448 61 
Q 2172 -91 1784 -91 
Q 1150 -91 751 415 
Q 353 922 353 1747 
Q 353 2572 751 3078 
Q 1150 3584 1784 3584 
Q 2172 3584 2448 3432 
Q 2725 3281 2906 2969 
z
M 947 1747 
Q 947 1113 1208 752 
Q 1469 391 1925 391 
Q 2381 391 2643 752 
Q 2906 1113 2906 1747 
Q 2906 2381 2643 2742 
Q 2381 3103 1925 3103 
Q 1469 3103 1208 2742 
Q 947 2381 947 1747 
z
" id="DejaVuSans-64" transform="scale(0.015625)"/>
      <path d="M 3116 1747 
Q 3116 2381 2855 2742 
Q 2594 3103 2138 3103 
Q 1681 3103 1420 2742 
Q 1159 2381 1159 1747 
Q 1159 1113 1420 752 
Q 1681 391 2138 391 
Q 2594 391 2855 752 
Q 3116 1113 3116 1747 
z
M 1159 2969 
Q 1341 3281 1617 3432 
Q 1894 3584 2278 3584 
Q 2916 3584 3314 3078 
Q 3713 2572 3713 1747 
Q 3713 922 3314 415 
Q 2916 -91 2278 -91 
Q 1894 -91 1617 61 
Q 1341 213 1159 525 
L 1159 0 
L 581 0 
L 581 4863 
L 1159 4863 
L 1159 2969 
z
" id="DejaVuSans-62" transform="scale(0.015625)"/>
      <path d="M 2375 4863 
L 2375 4384 
L 1825 4384 
Q 1516 4384 1395 4259 
Q 1275 4134 1275 3809 
L 1275 3500 
L 2222 3500 
L 2222 3053 
L 1275 3053 
L 1275 0 
L 697 0 
L 697 3053 
L 147 3053 
L 147 3500 
L 697 3500 
L 697 3744 
Q 697 4328 969 4595 
Q 1241 4863 1831 4863 
L 2375 4863 
z
" id="DejaVuSans-66" transform="scale(0.015625)"/>
     </defs>
     <use xlink:href="#DejaVuSans-50"/>
     <use x="56.677734" xlink:href="#DejaVuSans-6f"/>
     <use x="117.859375" xlink:href="#DejaVuSans-70"/>
     <use x="181.335938" xlink:href="#DejaVuSans-75"/>
     <use x="244.714844" xlink:href="#DejaVuSans-6c"/>
     <use x="272.498047" xlink:href="#DejaVuSans-61"/>
     <use x="333.777344" xlink:href="#DejaVuSans-74"/>
     <use x="372.986328" xlink:href="#DejaVuSans-69"/>
     <use x="400.769531" xlink:href="#DejaVuSans-6f"/>
     <use x="461.951172" xlink:href="#DejaVuSans-6e"/>
     <use x="525.330078" xlink:href="#DejaVuSans-27"/>
     <use x="552.820312" xlink:href="#DejaVuSans-73"/>
     <use x="604.919922" xlink:href="#DejaVuSans-20"/>
     <use x="636.707031" xlink:href="#DejaVuSans-61"/>
     <use x="697.986328" xlink:href="#DejaVuSans-76"/>
     <use x="757.166016" xlink:href="#DejaVuSans-65"/>
     <use x="818.689453" xlink:href="#DejaVuSans-72"/>
     <use x="859.802734" xlink:href="#DejaVuSans-61"/>
     <use x="921.082031" xlink:href="#DejaVuSans-67"/>
     <use x="984.558594" xlink:href="#DejaVuSans-65"/>
     <use x="1046.082031" xlink:href="#DejaVuSans-20"/>
     <use x="1077.869141" xlink:href="#DejaVuSans-61"/>
     <use x="1139.148438" xlink:href="#DejaVuSans-6e"/>
     <use x="1202.527344" xlink:href="#DejaVuSans-64"/>
     <use x="1266.003906" xlink:href="#DejaVuSans-20"/>
     <use x="1297.791016" xlink:href="#DejaVuSans-62"/>
     <use x="1361.267578" xlink:href="#DejaVuSans-65"/>
     <use x="1422.791016" xlink:href="#DejaVuSans-73"/>
     <use x="1474.890625" xlink:href="#DejaVuSans-74"/>
     <use x="1514.099609" xlink:href="#DejaVuSans-20"/>
     <use x="1545.886719" xlink:href="#DejaVuSans-66"/>
     <use x="1581.091797" xlink:href="#DejaVuSans-69"/>
     <use x="1608.875" xlink:href="#DejaVuSans-74"/>
     <use x="1648.083984" xlink:href="#DejaVuSans-6e"/>
     <use x="1711.462891" xlink:href="#DejaVuSans-65"/>
     <use x="1772.986328" xlink:href="#DejaVuSans-73"/>
     <use x="1825.085938" xlink:href="#DejaVuSans-73"/>
    </g>
   </g>
   <g id="legend_1">
    <g id="patch_7">
     <path d="M 64.6 108.1845 
L 137.540625 108.1845 
Q 139.540625 108.1845 139.540625 106.1845 
L 139.540625 48.472 
Q 139.540625 46.472 137.540625 46.472 
L 64.6 46.472 
Q 62.6 46.472 62.6 48.472 
L 62.6 106.1845 
Q 62.6 108.1845 64.6 108.1845 
z
" style="fill:#ffffff;opacity:0.8;stroke:#cccccc;stroke-linejoin:miter;"/>
    </g>
    <g id="line2d_29">
     <path d="M 66.6 54.570438 
L 86.6 54.570438 
" style="fill:none;stroke:#0000ff;stroke-linecap:square;stroke-width:1.5;"/>
    </g>
    <g id="line2d_30"/>
    <g id="text_16">
     <!-- average -->
     <g transform="translate(94.6 58.070438)scale(0.1 -0.1)">
      <use xlink:href="#DejaVuSans-61"/>
      <use x="61.279297" xlink:href="#DejaVuSans-76"/>
      <use x="120.458984" xlink:href="#DejaVuSans-65"/>
      <use x="181.982422" xlink:href="#DejaVuSans-72"/>
      <use x="223.095703" xlink:href="#DejaVuSans-61"/>
      <use x="284.375" xlink:href="#DejaVuSans-67"/>
      <use x="347.851562" xlink:href="#DejaVuSans-65"/>
     </g>
    </g>
    <g id="line2d_31">
     <path d="M 66.6 69.248563 
L 86.6 69.248563 
" style="fill:none;stroke:#008000;stroke-dasharray:9.6,2.4,1.5,2.4;stroke-dashoffset:0;stroke-width:1.5;"/>
    </g>
    <g id="line2d_32"/>
    <g id="text_17">
     <!-- -1 sd -->
     <g transform="translate(94.6 72.748563)scale(0.1 -0.1)">
      <defs>
       <path d="M 313 2009 
L 1997 2009 
L 1997 1497 
L 313 1497 
L 313 2009 
z
" id="DejaVuSans-2d" transform="scale(0.015625)"/>
      </defs>
      <use xlink:href="#DejaVuSans-2d"/>
      <use x="36.083984" xlink:href="#DejaVuSans-31"/>
      <use x="99.707031" xlink:href="#DejaVuSans-20"/>
      <use x="131.494141" xlink:href="#DejaVuSans-73"/>
      <use x="183.59375" xlink:href="#DejaVuSans-64"/>
     </g>
    </g>
    <g id="line2d_33">
     <path d="M 66.6 83.926688 
L 86.6 83.926688 
" style="fill:none;stroke:#008000;stroke-dasharray:9.6,2.4,1.5,2.4;stroke-dashoffset:0;stroke-width:1.5;"/>
    </g>
    <g id="line2d_34"/>
    <g id="text_18">
     <!-- +1 sd -->
     <g transform="translate(94.6 87.426688)scale(0.1 -0.1)">
      <defs>
       <path d="M 2944 4013 
L 2944 2272 
L 4684 2272 
L 4684 1741 
L 2944 1741 
L 2944 0 
L 2419 0 
L 2419 1741 
L 678 1741 
L 678 2272 
L 2419 2272 
L 2419 4013 
L 2944 4013 
z
" id="DejaVuSans-2b" transform="scale(0.015625)"/>
      </defs>
      <use xlink:href="#DejaVuSans-2b"/>
      <use x="83.789062" xlink:href="#DejaVuSans-31"/>
      <use x="147.412109" xlink:href="#DejaVuSans-20"/>
      <use x="179.199219" xlink:href="#DejaVuSans-73"/>
      <use x="231.298828" xlink:href="#DejaVuSans-64"/>
     </g>
    </g>
    <g id="line2d_35">
     <path d="M 66.6 98.604813 
L 86.6 98.604813 
" style="fill:none;stroke:#ff0000;stroke-linecap:square;stroke-width:1.5;"/>
    </g>
    <g id="line2d_36"/>
    <g id="text_19">
     <!-- best -->
     <g transform="translate(94.6 102.104813)scale(0.1 -0.1)">
      <use xlink:href="#DejaVuSans-62"/>
      <use x="63.476562" xlink:href="#DejaVuSans-65"/>
      <use x="125" xlink:href="#DejaVuSans-73"/>
      <use x="177.099609" xlink:href="#DejaVuSans-74"/>
     </g>
    </g>
   </g>
  </g>
 </g>
 <defs>
  <clipPath id="p2824f20b17">
   <rect height="266.112" width="357.12" x="57.6" y="41.472"/>
  </clipPath>
 </defs>
</svg>
