<?xml version="1.0" encoding="UTF-8" standalone="no"?>
<!DOCTYPE svg PUBLIC "-//W3C//DTD SVG 1.1//EN"
 "http://www.w3.org/Graphics/SVG/1.1/DTD/svg11.dtd">
<!-- Generated by graphviz version 2.47.3 (20210619.1520)
 -->
<!-- Pages: 1 -->
<svg width="198pt" height="149pt"
 viewBox="0.00 0.00 198.33 148.65" xmlns="http://www.w3.org/2000/svg" xmlns:xlink="http://www.w3.org/1999/xlink">
<g id="graph0" class="graph" transform="scale(1 1) rotate(0) translate(4 144.65)">
<polygon fill="white" stroke="transparent" points="-4,4 -4,-144.65 194.33,-144.65 194.33,4 -4,4"/>
<!-- angle -->
<g id="node1" class="node">
<title>angle</title>
<polygon fill="lightgray" stroke="black" points="85.61,-128.44 50.61,-128.44 50.61,-110.44 85.61,-110.44 85.61,-128.44"/>
<text text-anchor="middle" x="68.11" y="-117.24" font-family="Times New Roman,serif" font-size="9.00">angle</text>
</g>
<!-- delta_p -->
<g id="node2" class="node">
<title>delta_p</title>
<ellipse fill="lightblue" stroke="black" cx="31.11" cy="-31.11" rx="31.23" ry="31.23"/>
<text text-anchor="middle" x="31.11" y="-28.91" font-family="Times New Roman,serif" font-size="9.00">delta_p</text>
</g>
<!-- angle&#45;&gt;delta_p -->
<g id="edge1" class="edge">
<title>angle&#45;&gt;delta_p</title>
<path fill="none" stroke="green" stroke-width="1.33" d="M64.56,-110.16C60.49,-100.66 53.53,-84.41 47,-69.19"/>
<polygon fill="green" stroke="green" stroke-width="1.33" points="50.19,-67.73 43.03,-59.92 43.75,-70.49 50.19,-67.73"/>
</g>
<!-- 4036 -->
<g id="node3" class="node">
<title>4036</title>
<ellipse fill="white" stroke="black" cx="105.11" cy="-31.11" rx="25" ry="25"/>
<text text-anchor="middle" x="105.11" y="-28.91" font-family="Times New Roman,serif" font-size="9.00">4036</text>
</g>
<!-- angle&#45;&gt;4036 -->
<g id="edge3" class="edge">
<title>angle&#45;&gt;4036</title>
<path fill="none" stroke="green" stroke-width="0.18" d="M71.66,-110.16C76.23,-99.51 84.42,-80.38 91.56,-63.73"/>
<polygon fill="green" stroke="green" stroke-width="0.18" points="94.88,-64.87 95.6,-54.3 88.45,-62.11 94.88,-64.87"/>
</g>
<!-- 152 -->
<g id="node4" class="node">
<title>152</title>
<ellipse fill="white" stroke="black" cx="169.11" cy="-31.11" rx="21.43" ry="21.43"/>
<text text-anchor="middle" x="169.11" y="-28.91" font-family="Times New Roman,serif" font-size="9.00">152</text>
</g>
<!-- 751 -->
<g id="node5" class="node">
<title>751</title>
<ellipse fill="white" stroke="black" cx="169.11" cy="-119.44" rx="21.43" ry="21.43"/>
<text text-anchor="middle" x="169.11" y="-117.24" font-family="Times New Roman,serif" font-size="9.00">751</text>
</g>
<!-- 751&#45;&gt;152 -->
<g id="edge2" class="edge">
<title>751&#45;&gt;152</title>
<path fill="none" stroke="green" stroke-width="0.33" d="M169.11,-97.98C169.11,-87.44 169.11,-74.39 169.11,-62.68"/>
<polygon fill="green" stroke="green" stroke-width="0.33" points="172.61,-62.42 169.11,-52.42 165.61,-62.42 172.61,-62.42"/>
</g>
</g>
</svg>
